<?xml version="1.0" encoding="UTF-8"?>
<svg id="Capa_2" data-name="Capa 2" xmlns="http://www.w3.org/2000/svg" viewBox="0 0 435.8 333.24">
  <g id="svg41">
    <g id="Layer1000">
      <path id="path2" d="m259,305c0,2.5,1.8,6.4,3.1,7.8,9.3,10.5,27.5-2.9,16.7-15.3-8.2-9.3-19.8.1-19.8,7.5Z" style="fill: #fff; fill-rule: evenodd; stroke-width: 0px;"/>
      <path id="path4" d="m310.3,273c0,8.8,12.3,7.3,12.3,0,0-1.1-.9-3.4-1.6-4.2-2.5-2.8-10.7-2.5-10.7,4.2h0Z" style="fill: #fff; fill-rule: evenodd; stroke-width: 0px;"/>
      <path id="path8" d="m184.6,139.9h0l-17.6,23.5-17.7-23.4v-.1h-18.3l4.9,13.5v40.6h13.4v-28.2c-2.1-3.7-7.7-13.6-8.1-14.3l8.1,10.8,17.7,23.5,17.6-23.5,8.1-10.8c-.4.7-6,10.7-8.1,14.3v28.2h13.4v-54.1h-13.4Zm43-15.8h0l-27.1,69.8h15l12.1-23.9,12,23.9h15l-27-69.8Zm78.5,41c-3-3-7.2-4.9-11.9-4.9h-20.3c-1.9,0-3.4-1.5-3.4-3.4,0-.5.1-.9.2-1.3l-10.7-2.1h51.1l-4.3-13.5h-32.9c-9.3,0-16.9,7.6-16.9,16.9,0,4.6,1.8,8.8,4.9,11.9,3,3,7.2,4.9,11.9,4.9h20.3c1.9,0,3.4,1.5,3.4,3.4s-1.5,3.4-3.4,3.4h-37.1v13.4h37.1c9.3,0,16.9-7.6,16.9-16.9,0-4.5-1.8-8.7-4.9-11.8h0Zm66.2-25.2h-13.4v35.1c0,3.1-2.5,5.6-5.6,5.6h-29.6l9.9-1.4c-1.2-1-1.9-2.5-1.9-4.2v-35.1h-18.3l4.9,13.5v23.7c0,9.3,7.6,16.9,16.9,16.9h20.3c9.4,0,16.9-7.6,16.9-16.9v-37.2h-.1Zm42.5,33.8h4.1c9.3,0,16.9-7.6,16.9-16.9,0-4.7-1.8-8.9-4.9-11.9-3-3.1-7.2-4.9-11.9-4.9h-42l4.9,13.4h37.1c1.9,0,3.4,1.5,3.4,3.4,0,1-.4,1.7-1,2.4-.6.6-1.5,1-2.5,1h-37.2v33.7h13.4v-18.1l-8.1-10.5,12.8,12.6,16.5,16.1h19.4l-20.9-20.3Z" style="fill: #fff; fill-rule: evenodd; stroke-width: 0px;"/>
      <path id="path10" d="m63.5,24.2c9.6,0,17.4,7.8,17.4,17.4s-7.8,17.4-17.4,17.4-17.4-7.8-17.4-17.4,7.8-17.4,17.4-17.4Z" style="fill: #fff; fill-rule: evenodd; stroke-width: 0px;"/>
      <path id="path12" d="m33.6,60.9c7.7,0,14,6.2,14,14s-6.2,14-14,14-14-6.2-14-14,6.3-14,14-14Z" style="fill: #fff; fill-rule: evenodd; stroke-width: 0px;"/>
      <path id="path14" d="m10.9,125c6,0,10.9,4.9,10.9,10.9s-4.9,10.9-10.9,10.9-10.9-4.9-10.9-10.9c.1-6.1,4.9-10.9,10.9-10.9Z" style="fill: #fff; fill-rule: evenodd; stroke-width: 0px;"/>
      <path id="path16" d="m8.7,154.4c4.5,0,8.2,3.6,8.2,8.2s-3.6,8.2-8.2,8.2-8.2-3.6-8.2-8.2,3.7-8.2,8.2-8.2Z" style="fill: #fff; fill-rule: evenodd; stroke-width: 0px;"/>
      <path id="path18" d="m9.7,179.3c3.1,0,5.7,2.5,5.7,5.7s-2.5,5.7-5.7,5.7-5.7-2.5-5.7-5.7,2.5-5.7,5.7-5.7Z" style="fill: #fff; fill-rule: evenodd; stroke-width: 0px;"/>
      <path id="path20" d="m184.3,329.4c-3.4.2-6.7.3-10.2.3-28.5,0-55.4-7.2-78.8-19.9m-32.2-22.8c-25.9-23.4-44.4-54.9-51.6-90.4-.5-2.3-.9-4.5-1.2-6.8" style="fill: none; stroke: #fff; stroke-dasharray: 0 0 0 0 7.09 7.09 7.09 7.09; stroke-width: 7.09px;"/>
      <path id="path22" d="m18.6,94.8c6,0,10.9,4.9,10.9,10.9s-4.9,10.9-10.9,10.9-10.9-4.9-10.9-10.9,4.9-10.9,10.9-10.9Z" style="fill: #fff; fill-rule: evenodd; stroke-width: 0px;"/>
      <path id="path24" d="m80.2,281.6c9.5,0,17.2,7.7,17.2,17.2s-7.7,17.2-17.2,17.2-17.2-7.7-17.2-17.2,7.7-17.2,17.2-17.2Z" style="fill: #fff; fill-rule: evenodd; stroke-width: 0px;"/>
      <path id="path26" d="m271,293.4c6.5,0,11.7,5.2,11.7,11.7s-5.2,11.7-11.7,11.7-11.7-5.2-11.7-11.7c0-6.5,5.2-11.7,11.7-11.7Z" style="fill: #fff; fill-rule: evenodd; stroke-width: 0px;"/>
      <path id="path28" d="m341.3,58.5c5.9,0,10.7,4.8,10.7,10.7s-4.8,10.7-10.7,10.7-10.7-4.8-10.7-10.7c.1-5.9,4.8-10.7,10.7-10.7Z" style="fill: #fff; fill-rule: evenodd; stroke-width: 0px;"/>
      <path id="path30" d="m325.8,21.4c2.3,0,4.1,1.8,4.1,4.1s-1.8,4.1-4.1,4.1-4.1-1.8-4.1-4.1,1.8-4.1,4.1-4.1h0Z" style="fill: #fff; fill-rule: evenodd; stroke-width: 0px;"/>
      <path id="path32" d="m174.8,296.1h-.6c-36,0-68.7-14.4-92.6-37.8l36.3-38c14.4,14.4,34.3,23.2,56.2,23.2h.6v52.6h.1Z" style="fill: #fff; fill-rule: evenodd; stroke-width: 0px;"/>
      <path id="path34" d="m298.8,208.4c-18.2,50.9-66.8,87.4-123.9,87.7v-52.6c27.2-.2,51.2-14.1,65.4-35.1h58.5Z" style="fill: #fff; fill-rule: evenodd; stroke-width: 0px;"/>
      <path id="path36" d="m81.6,258.3c-24.5-24-39.8-57.5-39.8-94.5,0-72.8,58.9-131.9,131.6-132.3l.3,31.2-.6,21.4c-43.6.5-78.8,36-78.8,79.7,0,22.1,9,42.1,23.5,56.5l-36.2,38Z" style="fill: #fff; fill-rule: evenodd; stroke-width: 0px;"/>
      <path id="path38" d="m186.6,0c73.3,5.5,133.2,59,148.2,129.2h-89.6c-11.1-22.7-32.8-39.3-58.6-43.4V0h0Z" style="fill: #fff; fill-rule: evenodd; stroke-width: 0px;"/>
    </g>
  </g>
</svg>